<svg width="120px" data-name="Layer 1" xmlns="http://www.w3.org/2000/svg" viewBox="0 0 1916.9 743.39"><title>turahe-dark</title><path d="M183.12,807.69c1.2-126.3-3.24-250.14,2.74-373.28l27.37-.52c39.1,98,1.19,209.1,22.3,314.54H363.88V374.83H0V76.63c33.28,0,67.24-2,100.92,1.12,11.26,1,21.79,15.15,32.65,23.28-10.72,11.1-20.28,27.67-32.46,31.95-15.82,5.56-33.72,1.36-53.78,1.36V306.23H178.21V83.64H600.67V362.93H466.18q-1.41-13.31-2.83-26.61l90.27-31.09V145.71H239.36v169.9H412.73V807.69Z" transform="translate(0 -76)"/><path d="M1592.4,415.24H1483.81c0,118.35-1.1,233.25.57,348.08.62,42.52-10.45,58-45.78,45.29V80.36H1484V365.71c37.88-5.18,69.89-10.37,102-13.73,29.66-3.11,53,8.77,53.24,53,.72,133.56.26,267.12.26,404.11H1592.4Z" transform="translate(0 -76)"/><path d="M1767,596.28V755.15h95.86c17.57-20.67-14.31-99.95,52.8-71.61,0,22.11.14,46.13,0,70.16-.29,42.12-19.15,65.74-49.38,57.8-49.39-13-129.14,48.61-143.22-45.91-17.6-118.19-15.68-246.48-.29-365.74,11.2-86.83,84.59-31.86,129.36-43.16,27-6.83,59.63-5.19,62.42,45.54,2.8,51,3.84,102.89-.82,153.4-1.4,15.24-23.43,36.4-37.65,38.81C1842.26,600.15,1807.51,596.28,1767,596.28Zm2.15-183.77V541.38h96.48V412.51Z" transform="translate(0 -76)"/><path d="M1309,535.64V415h-99.77c-1.66,19.31-3.46,40.31-7.2,83.77-20.27-21.37-41.38-32.89-42.34-46.72-2.57-36.88-12.43-88.23,33.41-94.62a417.86,417.86,0,0,1,124.18,1.13c14,2.28,35.83,31.57,36.23,49.2,3.06,133,1.67,266.15,1.67,397.73-55.11,3.32-105.71,6.31-156.31,9.43-30.51,1.88-44.86-17.25-44.39-56,0-2.22-.18-4.46-.06-6.67,3.29-63.51-10.3-144.53,15.11-185.15C1191.07,532.71,1257.7,544.92,1309,535.64ZM1201.85,760.15l105.5-6.3V600.91h-105.5Z" transform="translate(0 -76)"/><path d="M820.76,805.2c-51.44,3.34-100.44,6.61-149.44,9.68-32.33,2-47.93-17.28-47.79-59.61.42-129.19.15-258.39.15-389.69,29.89-18,45.62-13.57,45.19,33.67-.89,95.84-.24,191.7-.22,287.55v69.84l107.57-6.95c0-114.77.63-227.5-.34-340.2-.35-40.79,5.67-66.27,44.88-47.59Z" transform="translate(0 -76)"/><path d="M909.58,362.82c47.9-3.87,93.86-12.77,139.39-10,61.51,3.73,40.52,69.31,41.15,112.89.23,15.87-18.78,32.2-29,48.32l-14.53-12.5-6.18-85.73H956.55c0,117.07-1.2,230.12.61,343.09.7,43.87-8.33,64.37-47.58,49.61Z" transform="translate(0 -76)"/></svg>
